<?xml version="1.0" encoding="utf-8"?>
<svg width="341.5px" height="14.000977px" viewBox="0 0 341.5 14.000977" version="1.1" xmlns:xlink="http://www.w3.org/1999/xlink" xmlns="http://www.w3.org/2000/svg">
  <g id="Group-20">
    <path d="M45 0.000488281L35.9918 0.016729Q35.7956 0.0170828 35.6003 0.036647Q35.405 0.0562112 35.2126 0.0947978Q35.0202 0.133384 34.8325 0.190623Q34.6448 0.247861 34.4637 0.323201Q34.2825 0.398541 34.1095 0.491259Q33.9366 0.583977 33.7735 0.693181Q33.6105 0.802386 33.4589 0.927028Q33.3074 1.05167 33.1687 1.19055Q33.0301 1.32943 32.9057 1.48122Q32.7814 1.63301 32.6724 1.79625Q32.5635 1.95948 32.4711 2.13259Q32.3787 2.30571 32.3037 2.48704Q32.2287 2.66837 32.1718 2.85617Q32.1149 3.04397 32.0767 3.23644Q32.0384 3.42891 32.0192 3.6242Q32 3.81949 32 4.01572L32 4.98534Q32 5.18129 32.0192 5.37631Q32.0383 5.57132 32.0764 5.76353Q32.1146 5.95574 32.1713 6.1433Q32.2281 6.33085 32.3029 6.51197Q32.3777 6.69308 32.4698 6.86601Q32.562 7.03895 32.6706 7.20204Q32.7792 7.36513 32.9033 7.51683Q33.0273 7.66852 33.1656 7.80736Q33.3039 7.9462 33.4551 8.07085Q33.6063 8.19551 33.7689 8.30478Q33.9316 8.41406 34.1041 8.50691Q34.2767 8.59976 34.4575 8.67529Q34.6383 8.75083 34.8256 8.80832Q35.013 8.86582 35.205 8.90473Q35.3971 8.94363 35.592 8.96357Q35.7869 8.98352 35.9829 8.98431L39.503 8.99849Q39.552 8.99868 39.6001 9.00842Q39.6481 9.01815 39.6934 9.03705Q39.7386 9.05594 39.7793 9.08328Q39.82 9.11062 39.8546 9.14535Q39.8892 9.18008 39.9163 9.22088Q39.9435 9.26168 39.9622 9.30699Q39.9809 9.3523 39.9905 9.40038Q40 9.44846 40 9.49748L40 9.50149Q40 9.55063 39.9904 9.59884Q39.9808 9.64704 39.962 9.69245Q39.9432 9.73785 39.9159 9.77872Q39.8886 9.81958 39.8538 9.85433Q39.8191 9.88909 39.7782 9.91639Q39.7374 9.9437 39.692 9.9625Q39.6466 9.98131 39.5983 9.9909Q39.5501 10.0005 39.501 10.0005L32 10.0005L32 14.0005L41.001 14.0005Q41.1975 14.0005 41.393 13.9812Q41.5885 13.962 41.7812 13.9236Q41.9738 13.8853 42.1618 13.8283Q42.3498 13.7713 42.5313 13.6961Q42.7129 13.6209 42.8861 13.5283Q43.0594 13.4357 43.2227 13.3265Q43.3861 13.2174 43.5379 13.0928Q43.6898 12.9681 43.8287 12.8292Q43.9676 12.6903 44.0923 12.5384Q44.2169 12.3866 44.326 12.2232Q44.4352 12.0599 44.5278 11.8866Q44.6204 11.7133 44.6956 11.5318Q44.7708 11.3503 44.8278 11.1623Q44.8848 10.9743 44.9232 10.7817Q44.9615 10.589 44.9807 10.3935Q45 10.1979 45 10.0015L45 9.01123Q45 8.81514 44.9808 8.61999Q44.9616 8.42484 44.9234 8.2325Q44.8853 8.04016 44.8284 7.85248Q44.7716 7.6648 44.6967 7.48358Q44.6218 7.30236 44.5295 7.12934Q44.4373 6.95632 44.3285 6.79316Q44.2197 6.62999 44.0955 6.47825Q43.9713 6.32651 43.8329 6.18765Q43.6944 6.04879 43.543 5.92414Q43.3917 5.79949 43.2288 5.69025Q43.066 5.58101 42.8932 5.48823Q42.7205 5.39544 42.5395 5.32Q42.3585 5.24457 42.171 5.1872Q41.9834 5.12983 41.7912 5.09108Q41.599 5.05233 41.4039 5.03257Q41.2088 5.01282 41.0127 5.01224L37.4975 5.00195Q37.4485 5.0018 37.4004 4.99211Q37.3523 4.98242 37.307 4.96354Q37.2618 4.94467 37.221 4.91734Q37.1803 4.89002 37.1456 4.85528Q37.111 4.82054 37.0838 4.77972Q37.0566 4.7389 37.0378 4.69357Q37.0191 4.64823 37.0096 4.60012Q37 4.552 37 4.50295L37 4.49949Q37 4.45034 37.0096 4.40214Q37.0192 4.35393 37.038 4.30853Q37.0568 4.26312 37.0841 4.22226Q37.1114 4.18139 37.1461 4.14664Q37.1809 4.11189 37.2218 4.08458Q37.2626 4.05728 37.308 4.03847Q37.3534 4.01966 37.4016 4.01008Q37.4499 4.00049 37.499 4.00049L45 4.00049L45 0.000488281Z" id="Vector-3-Copy-3" fill="#FFFFFF" fill-rule="evenodd" stroke="none" />
    <path d="M59 0.000488281L49.9918 0.016729Q49.7956 0.0170828 49.6003 0.036647Q49.405 0.0562112 49.2126 0.0947978Q49.0202 0.133384 48.8325 0.190623Q48.6448 0.247861 48.4637 0.323201Q48.2825 0.398541 48.1095 0.491259Q47.9366 0.583977 47.7735 0.693181Q47.6105 0.802386 47.4589 0.927028Q47.3074 1.05167 47.1687 1.19055Q47.0301 1.32943 46.9057 1.48122Q46.7814 1.63301 46.6724 1.79625Q46.5635 1.95948 46.4711 2.13259Q46.3787 2.30571 46.3037 2.48704Q46.2287 2.66837 46.1718 2.85617Q46.1149 3.04397 46.0767 3.23644Q46.0384 3.42891 46.0192 3.6242Q46 3.81949 46 4.01572L46 4.98534Q46 5.18129 46.0192 5.37631Q46.0383 5.57132 46.0764 5.76353Q46.1146 5.95574 46.1713 6.1433Q46.2281 6.33085 46.3029 6.51197Q46.3777 6.69308 46.4698 6.86601Q46.562 7.03895 46.6706 7.20204Q46.7792 7.36513 46.9033 7.51683Q47.0273 7.66852 47.1656 7.80736Q47.3039 7.9462 47.4551 8.07085Q47.6063 8.19551 47.7689 8.30478Q47.9316 8.41406 48.1041 8.50691Q48.2767 8.59976 48.4575 8.67529Q48.6383 8.75083 48.8256 8.80832Q49.013 8.86582 49.205 8.90473Q49.3971 8.94363 49.592 8.96357Q49.7869 8.98352 49.9829 8.98431L53.503 8.99849Q53.552 8.99868 53.6001 9.00842Q53.6481 9.01815 53.6933 9.03705Q53.7386 9.05594 53.7793 9.08328Q53.82 9.11062 53.8546 9.14535Q53.8892 9.18008 53.9163 9.22088Q53.9435 9.26168 53.9622 9.30699Q53.9809 9.3523 53.9905 9.40038Q54 9.44846 54 9.49748L54 9.50149Q54 9.55063 53.9904 9.59884Q53.9808 9.64704 53.962 9.69245Q53.9432 9.73785 53.9159 9.77872Q53.8886 9.81958 53.8538 9.85433Q53.8191 9.88909 53.7782 9.91639Q53.7374 9.9437 53.692 9.9625Q53.6465 9.98131 53.5984 9.9909Q53.5501 10.0005 53.501 10.0005L46 10.0005L46 14.0005L55.001 14.0005Q55.1975 14.0005 55.393 13.9812Q55.5885 13.962 55.7812 13.9236Q55.9738 13.8853 56.1618 13.8283Q56.3498 13.7713 56.5313 13.6961Q56.7128 13.6209 56.8861 13.5283Q57.0594 13.4357 57.2227 13.3265Q57.3861 13.2174 57.5379 13.0928Q57.6898 12.9681 57.8287 12.8292Q57.9676 12.6903 58.0923 12.5384Q58.2169 12.3866 58.326 12.2232Q58.4352 12.0599 58.5278 11.8866Q58.6204 11.7133 58.6956 11.5318Q58.7708 11.3503 58.8278 11.1623Q58.8848 10.9743 58.9232 10.7817Q58.9615 10.589 58.9807 10.3935Q59 10.1979 59 10.0015L59 9.01123Q59 8.81514 58.9808 8.61999Q58.9616 8.42484 58.9235 8.2325Q58.8853 8.04016 58.8284 7.85248Q58.7716 7.6648 58.6967 7.48358Q58.6218 7.30236 58.5295 7.12934Q58.4373 6.95632 58.3285 6.79316Q58.2197 6.62999 58.0955 6.47825Q57.9713 6.32651 57.8329 6.18765Q57.6944 6.04879 57.543 5.92414Q57.3917 5.79949 57.2288 5.69025Q57.066 5.58101 56.8932 5.48823Q56.7205 5.39544 56.5395 5.32Q56.3585 5.24457 56.171 5.1872Q55.9835 5.12983 55.7912 5.09108Q55.599 5.05233 55.4039 5.03257Q55.2088 5.01282 55.0127 5.01224L51.4975 5.00195Q51.4485 5.0018 51.4004 4.99211Q51.3523 4.98242 51.307 4.96354Q51.2618 4.94467 51.221 4.91734Q51.1803 4.89002 51.1456 4.85528Q51.111 4.82054 51.0838 4.77972Q51.0566 4.7389 51.0378 4.69357Q51.0191 4.64823 51.0096 4.60012Q51 4.552 51 4.50295L51 4.49949Q51 4.45034 51.0096 4.40214Q51.0192 4.35393 51.038 4.30853Q51.0568 4.26312 51.0841 4.22226Q51.1114 4.18139 51.1462 4.14664Q51.1809 4.11189 51.2218 4.08458Q51.2626 4.05728 51.308 4.03847Q51.3534 4.01966 51.4016 4.01008Q51.4499 4.00049 51.499 4.00049L59 4.00049L59 0.000488281Z" id="Vector-3-Copy-4" fill="#FFFFFF" fill-rule="evenodd" stroke="none" />
    <g id="Group-17" transform="translate(218 0)">
      <path d="M114.502 0L118.502 0L118.502 0.000488655C121.262 0.0015439 123.5 2.23972 123.5 5.00049C123.5 7.09641 122.21 8.89112 120.381 9.63445L123.5 14.0005L118.5 14.0005L115.929 10L115.5 10L115.5 14.0005L110.5 14.0005L110.5 0.000488281L114.502 0.000488281L114.502 0ZM117.498 6.00098L115.498 6.00098L115.498 4.00098L117.498 4.00098C118.05 4.00098 118.498 4.44869 118.498 5.00098C118.498 5.55326 118.05 6.00098 117.498 6.00098Z" id="Rectangle-22-Union-Subtract-Copy-Union-3-Subtract-2-Subtract-2" fill="#FFFFFF" fill-rule="evenodd" stroke="none" />
      <g id="Group-16" transform="translate(69.50195 0.00048828125)">
        <path d="M26 4.00049L26 0.000488281L12 0.000488281L12 4.00049L16 4.00049L16 14.0005L22 14.0005L22 4.00049L26 4.00049Z" id="Rectangle-6-Copy-8-Union-3" fill="#FFFFFF" fill-rule="evenodd" stroke="none" />
        <g id="Group-13-Copy-4" transform="translate(0 0.00048828125)">
          <path d="M0 14L5 14L7 5L9 14L14 14L10 0L4 0L0 14Z" id="Vector-3" fill="#FFFFFF" fill-rule="evenodd" stroke="none" />
          <path d="M4 9L10 9L10 12L4 12L4 9Z" id="Rectangle-11" fill="#FFFFFF" fill-rule="evenodd" stroke="none" />
        </g>
        <path d="M35.485 7C35.485 7 40 7 40 7C40 10.866 36.866 14 33 14C29.134 14 26 10.866 26 7C26 3.13401 29.134 0 33 0C36.866 0 40 3.13401 40 7C40 7 35.485 7 35.485 7C35.485 5.62757 34.3724 4.515 33 4.515C31.6276 4.515 30.515 5.62757 30.515 7C30.515 8.37243 31.6276 9.485 33 9.485C34.3724 9.485 35.485 8.37243 35.485 7Z" id="Oval-Copy-4" fill="#FFFFFF" fill-rule="evenodd" stroke="none" />
      </g>
      <path d="M60.0039 0.000488281L64.0039 0.000488281L64.0039 0.000976936C66.7644 0.00203219 69.002 2.2402 69.002 5.00098C69.002 7.09689 67.7124 8.89161 65.8834 9.63493L69.002 14.001L64.002 14.001L61.4313 10.0005L61.002 10.0005L61.002 14.001L56.002 14.001L56.002 0.000976563L60.0039 0.000976563L60.0039 0.000488281ZM63 6.00146L61 6.00146L61 4.00146L63 4.00146C63.5523 4.00146 64 4.44918 64 5.00146C64 5.55375 63.5523 6.00146 63 6.00146Z" id="Rectangle-22-Union-Subtract-Copy-Union-3-Subtract-2-Subtract" fill="#FFFFFF" fill-rule="evenodd" stroke="none" />
      <path d="M15 14.001L15 0.000976563L27 0.000976563L27 4.00098L20 4.00098L20 5.00098L25 5.00098L25 9.00098L20 9.00098L20 10.001L27 10.001L27 14.001L15 14.001Z" id="Rectangle-6-Union-Copy-6" fill="#FFFFFF" fill-rule="evenodd" stroke="none" />
      <g id="Group-14-Copy-3" transform="translate(0 0.0009765625)">
        <path d="M14 7L9.485 7C9.485 8.37243 8.37243 9.485 7 9.485C5.62757 9.485 4.515 8.37243 4.515 7C4.515 5.62757 5.62757 4.515 7 4.515C7.55233 4.515 8.06256 4.69519 8.47514 5L13.7101 5C12.8496 2.10851 10.171 0 7 0C3.13401 0 0 3.13401 0 7C0 10.866 3.13401 14 7 14C10.866 14 14 10.866 14 7Z" id="Oval-Copy-Subtract" fill="#FFFFFF" fill-rule="evenodd" stroke="none" />
        <path d="M7.00195 6L14.002 6L14.002 7L13.8535 8L7.00195 8L7.00195 6Z" id="Rectangle-10" fill="#FFFFFF" fill-rule="evenodd" stroke="none" />
      </g>
      <path d="M28 0.000976563L33 0.000976563L37 5.00098L37 0.000976563L42 0.000976563L42 14.001L37.0156 13.981L33 8.00098L33 14.001L28 14.001L28 0.000976563Z" id="Vector-2-Copy-5" fill="#FFFFFF" fill-rule="evenodd" stroke="none" />
      <path d="M43 14.0005L43 0.000488281L55 0.000488281L55 4.00049L48 4.00049L48 5.00049L53 5.00049L53 9.00049L48 9.00049L48 10.0005L55 10.0005L55 14.0005L43 14.0005Z" id="Rectangle-6-Union-Copy-7" fill="#FFFFFF" fill-rule="evenodd" stroke="none" />
    </g>
    <g id="Group-13-Copy-2" transform="translate(172.00195 0.0009765625)">
      <path d="M0 14L5 14L7 5L9 14L14 14L10 0L4 0L0 14Z" id="Vector-3" fill="#FFFFFF" fill-rule="evenodd" stroke="none" />
      <path d="M4 9L10 9L10 12L4 12L4 9Z" id="Rectangle-11" fill="#FFFFFF" fill-rule="evenodd" stroke="none" />
    </g>
    <g id="Group-13-Copy-3" transform="translate(59 0.0009765625)">
      <path d="M0 14L5 14L7 5L9 14L14 14L10 0L4 0L0 14Z" id="Vector-3" fill="#FFFFFF" fill-rule="evenodd" stroke="none" />
      <path d="M4 9L10 9L10 12L4 12L4 9Z" id="Rectangle-11" fill="#FFFFFF" fill-rule="evenodd" stroke="none" />
    </g>
    <path d="M200.502 14.0005L200.502 0.000488281L212.502 0.000488281L212.502 4.00049L205.502 4.00049L205.502 5.00049L210.502 5.00049L210.502 9.00049L205.502 9.00049L205.502 10.0005L212.502 10.0005L212.502 14.0005L200.502 14.0005Z" id="Rectangle-6-Union-Copy-5" fill="#FFFFFF" fill-rule="evenodd" stroke="none" />
    <path d="M87.5 14.0005L87.5 0.000488281L99.5 0.000488281L99.5 4.00049L92.5 4.00049L92.5 5.00049L97.5 5.00049L97.5 9.00049L92.5 9.00049L92.5 10.0005L99.5 10.0005L99.5 14.0005L87.5 14.0005Z" id="Rectangle-6-Union-Copy-9" fill="#FFFFFF" fill-rule="evenodd" stroke="none" />
    <path d="M19 14.0005L19 0.000488281L31 0.000488281L31 4.00049L24 4.00049L24 5.00049L29 5.00049L29 9.00049L24 9.00049L24 10.0005L31 10.0005L31 14.0005L19 14.0005Z" id="Rectangle-6-Union-Copy-8" fill="#FFFFFF" fill-rule="evenodd" stroke="none" />
    <g id="Group-14-Copy-2" transform="translate(185.50195 0.00048828125)">
      <path d="M14 7L9.485 7C9.485 8.37243 8.37243 9.485 7 9.485C5.62757 9.485 4.515 8.37243 4.515 7C4.515 5.62757 5.62757 4.515 7 4.515C7.55233 4.515 8.06256 4.69519 8.47514 5L13.7101 5C12.8496 2.10851 10.171 0 7 0C3.13401 0 0 3.13401 0 7C0 10.866 3.13401 14 7 14C10.866 14 14 10.866 14 7Z" id="Oval-Copy-Subtract" fill="#FFFFFF" fill-rule="evenodd" stroke="none" />
      <path d="M7.00195 6L14.002 6L14.002 7L13.8535 8L7.00195 8L7.00195 6Z" id="Rectangle-10" fill="#FFFFFF" fill-rule="evenodd" stroke="none" />
    </g>
    <g id="Group-14-Copy-4" transform="translate(72.5 0.00048828125)">
      <path d="M14 7L9.485 7C9.485 8.37243 8.37243 9.485 7 9.485C5.62757 9.485 4.515 8.37243 4.515 7C4.515 5.62757 5.62757 4.515 7 4.515C7.55233 4.515 8.06256 4.69519 8.47514 5L13.7101 5C12.8496 2.10851 10.171 0 7 0C3.13401 0 0 3.13401 0 7C0 10.866 3.13401 14 7 14C10.866 14 14 10.866 14 7Z" id="Oval-Copy-Subtract" fill="#FFFFFF" fill-rule="evenodd" stroke="none" />
      <path d="M7.00195 6L14.002 6L14.002 7L13.8535 8L7.00195 8L7.00195 6Z" id="Rectangle-10" fill="#FFFFFF" fill-rule="evenodd" stroke="none" />
    </g>
    <path d="M152 0.000488281L152 3.00049L148 3.00049L148 11.0005L152 11.0005L152 14.0005L138 14.0005L138 11.0005L142 11.0005L142 3.00049L138 3.00049L138 0.000488281L152 0.000488281Z" id="Vector-Copy-4" fill="#FFFFFF" fill-rule="evenodd" stroke="none" />
    <path d="M153 0.000488281L160 0.000488281L162 4.00049L164 0.000488281L171 0.000488281L171 14.0005L166 14.0005L166 7.00049L162.016 13.9805L158 7.00049L158 14.0005L153 14.0005L153 0.000488281Z" id="Vector-2-Copy-4" fill="#FFFFFF" fill-rule="evenodd" stroke="none" />
    <path d="M0 0.000488281L7 0.000488281L9 4.00049L11 0.000488281L18 0.000488281L18 14.0005L13 14.0005L13 7.00049L9.01563 13.9805L5 7.00049L5 14.0005L0 14.0005L0 0.000488281Z" id="Vector-2-Copy-6" fill="#FFFFFF" fill-rule="evenodd" stroke="none" />
    <path d="M128.487 7.00049C128.487 7.00049 133.002 7.00049 133.002 7.00049C133.002 10.8665 129.868 14.0005 126.002 14.0005C122.136 14.0005 119.002 10.8665 119.002 7.00049C119.002 3.13449 122.136 0.000488281 126.002 0.000488281C129.868 0.000488281 133.002 3.13449 133.002 7.00049C133.002 7.00049 128.487 7.00049 128.487 7.00049C128.487 5.62806 127.374 4.51549 126.002 4.51549C124.63 4.51549 123.517 5.62806 123.517 7.00049C123.517 8.37292 124.63 9.48549 126.002 9.48549C127.374 9.48549 128.487 8.37292 128.487 7.00049Z" id="Oval-Copy-5" fill="#FFFFFF" fill-rule="evenodd" stroke="none" />
    <path d="M119 4.00049L119 0.000488281L105 0.000488281L105 4.00049L109 4.00049L109 14.0005L115 14.0005L115 4.00049L119 4.00049Z" id="Rectangle-6-Copy-8-Union-3" fill="#FFFFFF" fill-rule="evenodd" stroke="none" />
  </g>
</svg>